<svg width="24" height="24" fill="none" xmlns="http://www.w3.org/2000/svg"><path d="M24 4.557a9.882 9.882 0 01-2.828.776 4.931 4.931 0 002.164-2.724 9.9 9.9 0 01-3.126 1.196 4.913 4.913 0 00-3.593-1.555 4.923 4.923 0 00-4.926 4.923c0 .387.044.762.127 1.122A13.968 13.968 0 011.67 3.15a4.919 4.919 0 00-.666 2.476c0 1.709.87 3.215 2.188 4.098a4.876 4.876 0 01-2.23-.617v.063a4.926 4.926 0 003.95 4.827 4.918 4.918 0 01-2.222.085 4.929 4.929 0 004.597 3.42 9.873 9.873 0 01-6.113 2.106A9.78 9.78 0 010 19.539a13.946 13.946 0 007.547 2.211c9.056 0 14.01-7.501 14.01-14.007 0-.213-.006-.425-.014-.636A10.011 10.011 0 0024 4.557z" fill="silver"/></svg>